<?xml version="1.0" standalone="no"?> <!DOCTYPE svg PUBLIC "-//W3C//DTD SVG 1.0//EN" "http://www.w3.org/TR/2001/REC-SVG-20010904/DTD/svg10.dtd" > <svg xmlns="http://www.w3.org/2000/svg" width="100%" height="100%">
<defs >
<font id="ProximaNova-BoldIt" horiz-adv-x="456" ><font-face
    font-family="ProximaNova-BoldIt"
    units-per-em="1000"
    panose-1="2 0 5 6 3 0 0 2 0 4"
    ascent="920"
    descent="-298"
    alphabetic="0" />
<missing-glyph horiz-adv-x="483" d="M437 -90H86V752H437V-90ZM405 -60V722H117V-60H405Z" />
<glyph unicode=" " glyph-name="space" horiz-adv-x="256" />
<glyph unicode="!" glyph-name="exclam" horiz-adv-x="256" d="M177 217H65L144 667H297L177 217ZM82 -12Q51 -12 30 10T8 63Q8 99 34 125T97 151Q128 151 149 129T170 76Q170 40 144 14T82 -12Z" />
<glyph unicode="&quot;" glyph-name="quotedbl" horiz-adv-x="406" d="M169 375H113Q121 576 122 596Q122 630 145 653T201 677Q226 677 244 659T262 614Q262 605 255 584L169 375ZM351 375H295Q303 576 304 596Q305 631 327 654T383 677Q408 677 426 659T444
614Q444 598 437 584L351 375Z" />
<glyph unicode="#" glyph-name="numbersign" horiz-adv-x="618" d="M285 0H190L285 169H190L96 0H2L97 169H0L44 250H141L233 416H136L178 496H278L372 667H466L372 496H466L560 667H655L559 496H657L615 416H515L423 250H524L481 169H378L285 0ZM329 250L421
416H327L236 250H329Z" />
<glyph unicode="$" glyph-name="dollar" horiz-adv-x="614" d="M189 -100L211 -2Q73 26 8 112L96 216Q147 148 239 123L274 280Q235 295 209 308T155 343T112 393T97 460Q97 547 168 612T358 677H362L382 768H477L454 666Q560 641 623 569L535 469Q494 516 426
539L394 397Q433 382 460 369T515 334T558 283T573 216Q573 120 502 54T310 -12H303L284 -100H189ZM421 188Q421 220 360 247L331 112Q375 115 398 137T421 188ZM247 486Q247 457 307 430L334 554Q297 553 272 533T247 486Z" />
<glyph unicode="%" glyph-name="percent" horiz-adv-x="757" d="M151 0H76L649 667H725L151 0ZM530 -12Q463 -12 416 26T369 127Q369 212 423 266T554 321Q621 321 668 283T715 182Q715 97 661 43T530 -12ZM532 66Q570 66 597 96T624 174Q624 203 604 222T552
242Q514 242 488 212T461 135Q461 105 481 86T532 66ZM241 345Q175 345 129 383T82 483Q82 568 136 622T267 677Q333 677 379 639T426 539Q426 454 372 400T241 345ZM245 423Q283 423 309 453T336 530Q336 559 316 578T263 598Q225 598 199 568T172 491Q172 462
192 443T245 423Z" />
<glyph unicode="&amp;" glyph-name="ampersand" horiz-adv-x="646" d="M566 0H415L387 37Q304 -12 221 -12Q124 -12 65 32T5 164T56 302T196 385Q179 441 179 490Q179 569 238 623T382 677Q455 677 505 641T556 541Q556 507 544 479T514 434T466 399T411 372T349
349Q363 321 386 281Q416 227 432 200Q487 260 522 322L613 265Q549 174 486 114Q521 60 566 0ZM200 88T242 88T332 117Q292 175 276 207Q239 277 228 301Q144 255 144 179Q144 135 172 112ZM307 491Q307 461 318 425Q379 446 410 469T442 529Q442 556 427 570T387
585Q356 585 332 560T307 491Z" />
<glyph unicode="&apos;" glyph-name="quotesingle" horiz-adv-x="225" d="M169 375H113Q121 576 122 596Q122 630 145 653T201 677Q226 677 244 659T262 614Q262 605 255 584L169 375Z" />
<glyph unicode="(" glyph-name="parenleft" horiz-adv-x="297" d="M195 -146L103 -199Q23 -80 23 107Q23 263 96 416T296 685L363 617Q157 369 157 72Q157 -32 195 -146Z" />
<glyph unicode=")" glyph-name="parenright" horiz-adv-x="297" d="M101 632L193 685Q273 563 273 379Q273 223 200 70T-1 -199L-67 -131Q139 117 139 413Q139 518 101 632Z" />
<glyph unicode="*" glyph-name="asterisk" horiz-adv-x="351" d="M234 366H169L200 480L94 432L76 489L183 527L98 587L141 637L220 569L239 677H303L272 564L378 612L396 554L290 515L375 456L330 406L252 474L234 366Z" />
<glyph unicode="+" glyph-name="plus" horiz-adv-x="504" d="M487 298H307L262 95H176L221 298H41L58 377H238L281 572H368L325 377H505L487 298Z" />
<glyph unicode="," glyph-name="comma" horiz-adv-x="256" d="M174 69Q174 13 132 -44T27 -131L-18 -84Q12 -71 40 -48T80 0H69Q43 0 26 17T8 65Q8 100 35 125T96 151Q129 151 151 130T174 69Z" />
<glyph unicode="-" glyph-name="hyphen" horiz-adv-x="300" d="M257 188H17L41 296H281L257 188Z" />
<glyph unicode="." glyph-name="period" horiz-adv-x="256" d="M82 -12Q51 -12 30 10T8 63Q8 99 34 125T97 151Q128 151 149 129T170 76Q170 40 144 14T82 -12Z" />
<glyph unicode="/" glyph-name="slash" horiz-adv-x="329" d="M35 -20H-60L333 687H429L35 -20Z" />
<glyph unicode="0" glyph-name="zero" horiz-adv-x="620" d="M284 -12Q174 -12 109 59T43 257Q43 365 84 461T202 617T375 677Q485 677 549 607T614 409Q614 300 574 205T456 49T284 -12ZM297 114Q349 114 390 163T451 280T471 416Q471 478 444 514T361 551Q284
551 236 455T187 250Q187 187 214 151T297 114Z" />
<glyph unicode="1" glyph-name="one" horiz-adv-x="411" d="M291 0H149L255 484L120 371L57 456L314 667H438L291 0Z" />
<glyph unicode="2" glyph-name="two" horiz-adv-x="600" d="M495 0H-7L22 132Q121 188 176 221T292 293T382 360T431 416T450 474Q450 510 417 531T330 552Q235 552 164 492L104 594Q148 632 211 654T340 677Q449 677 524 626T599 483Q599 389 510 303T250 125H522L495
0Z" />
<glyph unicode="3" glyph-name="three" horiz-adv-x="587" d="M279 -12Q185 -12 105 25T-13 127L82 213Q112 166 167 140T277 114Q334 114 365 139T396 206Q396 276 274 276Q215 276 193 274L222 402Q233 401 315 401Q445 401 445 478Q445 511 411 531T314 551Q221
551 152 497L101 594Q192 677 328 677Q449 677 520 631T592 503Q592 439 537 393T412 338Q536 307 536 192Q536 104 462 46T279 -12Z" />
<glyph unicode="4" glyph-name="four" horiz-adv-x="597" d="M432 0H290L320 138H1L29 262L375 667H579L490 263H575L548 138H462L432 0ZM347 263L409 541L167 263H347Z" />
<glyph unicode="5" glyph-name="five" horiz-adv-x="608" d="M296 -12Q105 -12 18 116L119 206Q176 114 298 114Q355 114 389 145T424 222Q424 265 390 288T298 312Q229 312 176 272L84 309L163 667H621L594 542H277L243 385Q297 428 376 428Q460 428 516 378T573
239Q573 134 495 61T296 -12Z" />
<glyph unicode="6" glyph-name="six" horiz-adv-x="608" d="M301 -12Q178 -12 109 56T39 246Q39 357 79 453T203 613T397 677Q538 677 621 586L533 486Q483 551 389 551Q321 551 272 503T202 387Q199 381 193 361Q221 390 268 410T366 431Q457 431 517 381T577
247Q577 140 496 64T301 -12ZM247 114T301 114T392 147T429 229Q429 269 392 293T300 317Q233 317 179 266Q178 259 178 232Q178 178 212 146Z" />
<glyph unicode="7" glyph-name="seven" horiz-adv-x="545" d="M225 0H62L418 542H90L117 667H618L596 568L225 0Z" />
<glyph unicode="8" glyph-name="eight" horiz-adv-x="606" d="M285 -12Q171 -12 93 33T14 167Q14 233 63 284T199 358Q156 377 128 412T99 492Q99 554 139 597T237 658T361 677Q466 677 543 633T621 506Q621 441 574 394T448 331Q498 305 528 266T559 180Q559
92 478 40T285 -12ZM337 399Q396 403 432 424T468 481Q468 512 435 533T352 554Q306 554 274 533T241 477Q241 451 270 429T337 399ZM291 110Q341 110 378 133T415 193Q415 224 384 247T310 281Q248 278 207 253T165 189Q165 151 199 131T291 110Z" />
<glyph unicode="9" glyph-name="nine" horiz-adv-x="608" d="M345 678Q468 678 537 610T607 420Q607 338 583 262T515 124T402 26T248 -11Q108 -11 26 79L113 180Q160 115 258 115Q326 115 374 162T445 278Q452 300 453 305Q424 275 377 255T280 234Q189 234 129
284T68 419Q68 525 150 601T345 678ZM399 552T345 552T254 519T217 437Q217 397 253 373T345 349Q414 349 467 399Q468 406 468 433Q468 487 434 519Z" />
<glyph unicode=":" glyph-name="colon" horiz-adv-x="256" d="M82 -12Q51 -12 30 10T8 63Q8 99 34 125T97 151Q128 151 149 129T170 76Q170 40 144 14T82 -12ZM156 328Q125 328 104 350T83 403Q83 439 109 464T171 490Q202 490 223 469T245 416Q245 380 219 354T156 328Z" />
<glyph unicode=";" glyph-name="semicolon" horiz-adv-x="256" d="M174 69Q174 13 132 -44T27 -131L-18 -84Q12 -71 40 -48T80 0H69Q43 0 26 17T8 65Q8 100 35 125T96 151Q129 151 151 130T174 69ZM156 328Q125 328 104 350T83 403Q83 439 109 464T171 490Q202
490 223 469T245 416Q245 380 219 354T156 328Z" />
<glyph unicode="&lt;" glyph-name="less" horiz-adv-x="504" d="M440 90L38 289L59 380L549 580L527 482L139 330L460 180L440 90Z" />
<glyph unicode="=" glyph-name="equal" horiz-adv-x="504" d="M507 388H61L78 468H524L507 388ZM466 201H19L37 279H483L466 201Z" />
<glyph unicode="&gt;" glyph-name="greater" horiz-adv-x="504" d="M485 289L-6 90L16 188L405 338L83 490L103 580L505 380L485 289Z" />
<glyph unicode="?" glyph-name="question" d="M285 236L169 204Q152 235 152 274Q152 324 182 359T249 411T315 450T346 499Q346 552 265 552Q196 552 143 504L83 602Q172 677 286 677Q376 677 436 637T497 529Q497 480 474 444T419 388T353 351T297 313T274 264Q274
247 285 236ZM179 -12Q149 -12 128 10T106 63Q106 99 132 125T195 151Q226 151 247 129T268 76Q268 40 242 14T179 -12Z" />
<glyph unicode="@" glyph-name="at" horiz-adv-x="783" d="M372 -70Q236 -70 146 20T55 244Q55 348 110 439T258 584T452 638Q592 638 679 549T767 332Q767 216 705 151T569 85Q527 85 502 106T472 159L471 165Q445 128 406 107T327 85Q256 85 214 132T172 253Q172
352 241 425T398 498Q441 498 473 480T523 431L534 484H647L596 240Q593 222 593 216Q593 171 630 171Q665 171 694 212T724 332Q724 451 649 525T448 599Q306 599 200 493T94 246Q94 128 174 48T376 -32Q472 -32 559 23L580 -7Q482 -70 372 -70ZM371 175Q434 175
482 240L507 357Q482 408 426 408Q368 408 328 364T288 263Q288 224 310 200T371 175Z" />
<glyph unicode="A" glyph-name="A" horiz-adv-x="684" d="M634 0H480L463 113H177L110 0H-59L346 667H524L634 0ZM451 238L411 525L244 238H451Z" />
<glyph unicode="B" glyph-name="B" horiz-adv-x="663" d="M376 0H12L159 667H483Q567 667 615 621T664 507T619 390T512 333Q557 321 582 283T608 198Q608 119 550 60T376 0ZM422 400Q469 400 490 424T512 483Q512 509 493 527T444 545H275L243 400H422ZM365 123Q411
123 438 148T466 210Q466 240 446 259T393 278H215L181 123H365Z" />
<glyph unicode="C" glyph-name="C" horiz-adv-x="687" d="M372 -12Q231 -12 138 70T44 287Q44 459 158 568T432 678Q547 678 621 625T728 489L591 443Q572 495 528 523T425 552Q329 552 261 478T192 296Q192 217 243 166T380 114Q423 114 466 135T537 191L646
117Q593 49 520 19T372 -12Z" />
<glyph unicode="D" glyph-name="D" horiz-adv-x="718" d="M274 0H12L159 667H417Q533 667 619 586T706 380Q706 326 692 274T644 171T562 84T439 23T274 0ZM295 125H300Q417 125 487 196T558 371Q558 444 511 493T390 542H274L182 125H295Z" />
<glyph unicode="E" glyph-name="E" horiz-adv-x="583" d="M484 0H12L159 667H631L603 542H274L243 401H565L537 276H215L182 125H511L484 0Z" />
<glyph unicode="F" glyph-name="F" horiz-adv-x="571" d="M154 0H12L159 667H631L603 542H274L243 401H565L537 276H215L154 0Z" />
<glyph unicode="G" glyph-name="G" horiz-adv-x="720" d="M372 -12Q232 -12 138 70T44 287Q44 456 158 567T445 678Q545 678 616 631T720 513L589 457Q572 499 527 525T425 552Q330 552 261 478T192 296Q192 218 243 166T380 114Q453 114 513 165L531 245H354L382
370H701L643 110Q540 -12 372 -12Z" />
<glyph unicode="H" glyph-name="H" horiz-adv-x="731" d="M612 0H469L531 280H216L154 0H12L159 667H301L244 405H558L616 667H759L612 0Z" />
<glyph unicode="I" glyph-name="I" horiz-adv-x="274" d="M154 0H12L159 667H301L154 0Z" />
<glyph unicode="J" glyph-name="J" horiz-adv-x="486" d="M165 -12Q106 -12 54 7T-29 63L48 169Q84 114 155 114Q248 114 273 221L371 667H513L415 219Q389 100 329 44T165 -12Z" />
<glyph unicode="K" glyph-name="K" horiz-adv-x="636" d="M583 0H416L269 273L200 205L154 0H12L159 667H301L238 381L529 667H712L378 354L583 0Z" />
<glyph unicode="L" glyph-name="L" horiz-adv-x="523" d="M436 0H12L159 667H301L182 125H463L436 0Z" />
<glyph unicode="M" glyph-name="M" horiz-adv-x="855" d="M735 0H592L698 481L404 0H342L260 481L154 0H12L159 667H353L422 250L677 667H882L735 0Z" />
<glyph unicode="N" glyph-name="N" horiz-adv-x="729" d="M609 0H472L254 450L154 0H12L159 667H305L517 233L614 667H756L609 0Z" />
<glyph unicode="O" glyph-name="O" horiz-adv-x="765" d="M372 -12Q230 -12 137 70T44 287Q44 451 156 564T432 678Q573 678 666 596T759 380Q759 216 648 102T372 -12ZM380 114Q476 114 543 188T611 370Q611 453 558 502T423 552Q326 552 259 478T192 296Q192
213 245 164T380 114Z" />
<glyph unicode="P" glyph-name="P" horiz-adv-x="624" d="M154 0H12L159 667H452Q542 667 596 614T650 482Q650 442 636 402T591 323T505 261T374 237H207L154 0ZM234 362H383Q435 362 468 392T501 467Q501 500 478 521T418 542H274L234 362Z" />
<glyph unicode="Q" glyph-name="Q" horiz-adv-x="765" d="M372 -12Q230 -12 137 70T44 287Q44 451 156 564T432 678Q573 678 666 596T759 380Q759 285 719 204T609 68L644 14L530 -41L498 8Q438 -12 372 -12ZM380 114Q403 114 428 119L371 211L484 266L537 182Q611
258 611 370Q611 453 558 502T423 552Q326 552 259 478T192 296Q192 213 245 164T380 114Z" />
<glyph unicode="R" glyph-name="R" horiz-adv-x="643" d="M552 0H395L316 237H206L154 0H12L159 667H444Q528 667 589 615T650 479Q650 390 597 326T460 247L552 0ZM381 362H383Q438 362 469 390T501 465Q501 498 476 520T417 542H274L234 362H381Z" />
<glyph unicode="S" glyph-name="S" horiz-adv-x="600" d="M301 -12Q204 -12 123 22T-1 112L87 216Q122 169 183 141T312 112Q361 112 386 135T412 188Q412 213 379 232T298 269T203 307T122 367T88 460Q88 547 159 612T349 677Q429 677 499 649T614 569L526 469Q490
510 436 532T327 554Q289 554 264 534T238 486Q238 463 271 444T353 409T449 371T530 310T564 216Q564 120 493 54T301 -12Z" />
<glyph unicode="T" glyph-name="T" horiz-adv-x="582" d="M309 0H166L285 542H90L118 667H650L623 542H428L309 0Z" />
<glyph unicode="U" glyph-name="U" horiz-adv-x="733" d="M356 -12Q215 -12 141 51T66 221Q66 241 71 266L159 667H303L216 270Q212 258 212 237Q213 184 250 149T356 113Q494 113 528 270L616 667H761L672 267Q643 134 569 61T356 -12Z" />
<glyph unicode="V" glyph-name="V" horiz-adv-x="684" d="M377 0H199L88 667H243L315 154L612 667H781L377 0Z" />
<glyph unicode="W" glyph-name="W" horiz-adv-x="918" d="M673 0H522L506 458L289 0H138L94 667H250L260 185L493 667H604L624 185L847 667H1010L673 0Z" />
<glyph unicode="X" glyph-name="X" horiz-adv-x="668" d="M617 0H456L335 237L121 0H-57L264 351L105 667H266L375 446L570 667H749L446 334L617 0Z" />
<glyph unicode="Y" glyph-name="Y" horiz-adv-x="645" d="M340 0H198L258 273L88 667H242L349 399L572 667H742L400 273L340 0Z" />
<glyph unicode="Z" glyph-name="Z" horiz-adv-x="592" d="M496 0H-12L13 115L414 542H108L135 667H636L612 553L209 125H524L496 0Z" />
<glyph unicode="[" glyph-name="bracketleft" horiz-adv-x="280" d="M166 -190H-50L143 678H359L340 593H216L61 -105H185L166 -190Z" />
<glyph unicode="\" glyph-name="backslash" horiz-adv-x="329" d="M178 -20L98 687H190L270 -20H178Z" />
<glyph unicode="]" glyph-name="bracketright" horiz-adv-x="280" d="M136 -190H-79L-60 -105H64L219 593H95L113 678H329L136 -190Z" />
<glyph unicode="^" glyph-name="asciicircum" horiz-adv-x="441" d="M441 333H352L299 580L137 333H38L268 667H361L441 333Z" />
<glyph unicode="_" glyph-name="underscore" horiz-adv-x="564" d="M484 -125H-85L-65 -40H504L484 -125Z" />
<glyph unicode="`" glyph-name="grave" horiz-adv-x="251" d="M320 556H231L101 700H218L320 556Z" />
<glyph unicode="a" glyph-name="a" horiz-adv-x="586" d="M281 495Q329 495 370 475T435 419L448 483H576L469 0H341L355 60Q294 -12 210 -12T76 41T26 188Q26 264 54 332T142 448T281 495ZM301 382Q240 382 200 332T159 214Q159 163 189 132T266 101Q332 101
377 158L414 326Q377 382 301 382Z" />
<glyph unicode="b" glyph-name="b" horiz-adv-x="586" d="M304 -12Q201 -12 150 64L136 0H9L156 667H283L229 423Q290 495 375 495Q458 495 508 442T558 295Q558 220 530 151T442 35T304 -12ZM283 101Q345 101 385 150T425 269Q425 320 395 351T318 382Q254 382
207 324L170 156Q206 101 283 101Z" />
<glyph unicode="c" glyph-name="c" horiz-adv-x="499" d="M265 -12Q157 -12 93 48T28 208Q28 328 109 411T309 495Q448 495 505 400L410 327Q378 382 309 382Q242 382 200 333T157 214Q157 161 191 131T278 101Q338 101 379 149L448 64Q376 -12 265 -12Z" />
<glyph unicode="d" glyph-name="d" horiz-adv-x="586" d="M281 495Q329 495 370 475T435 419L489 667H617L469 0H341L355 60Q294 -12 210 -12T76 41T26 188Q26 264 54 332T142 448T281 495ZM301 382Q240 382 200 332T159 214Q159 163 189 132T266 101Q332 101
377 158L414 326Q377 382 301 382Z" />
<glyph unicode="e" glyph-name="e" horiz-adv-x="553" d="M278 -12Q163 -12 96 46T28 205Q28 325 108 410T307 495Q402 495 463 437T524 279Q524 233 514 201H155V189Q155 153 190 121T287 89Q362 89 409 125L449 38Q376 -12 278 -12ZM168 287H410V297Q410 337
382 365T299 394Q250 394 214 362T168 287Z" />
<glyph unicode="f" glyph-name="f" horiz-adv-x="327" d="M165 0H38L120 373H40L65 483H144L150 510Q167 585 213 631T336 677Q417 677 463 630L400 556Q379 577 346 577Q292 577 277 508L271 483H370L345 373H247L165 0Z" />
<glyph unicode="g" glyph-name="g" horiz-adv-x="585" d="M212 -196Q56 -196 -21 -112L53 -27Q76 -58 118 -75T210 -92Q319 -92 347 33L357 77Q297 4 209 4Q130 4 79 52T27 200Q27 317 96 406T277 495Q321 495 364 475T433 419L447 483H575L475 33Q461 -33 433
-79T367 -150T292 -185T212 -196ZM269 117Q332 117 378 172L412 322Q376 382 294 382Q235 382 197 337T159 225Q159 176 189 147T269 117Z" />
<glyph unicode="h" glyph-name="h" horiz-adv-x="580" d="M463 0H336L399 290Q404 310 404 320Q404 382 321 382Q265 382 208 325L136 0H9L156 667H283L229 420Q306 495 390 495Q459 495 500 462T541 372Q541 357 536 332L463 0Z" />
<glyph unicode="i" glyph-name="i" horiz-adv-x="253" d="M198 535Q169 535 150 554T130 600Q130 639 156 662T215 686Q245 686 264 667T284 621Q284 582 257 559T198 535ZM136 0H9L116 483H243L136 0Z" />
<glyph unicode="j" glyph-name="j" horiz-adv-x="253" d="M-54 -196Q-144 -196 -188 -155L-135 -64Q-113 -92 -72 -92Q-13 -92 5 -13L116 483H243L132 -13Q113 -101 69 -148T-54 -196ZM198 535Q169 535 150 554T130 600Q130 639 156 662T215 686Q245 686 264 667T284
621Q284 582 257 559T198 535Z" />
<glyph unicode="k" glyph-name="k" horiz-adv-x="535" d="M481 0H327L238 189L163 124L136 0H9L156 667H283L196 276L420 483H582L342 264L481 0Z" />
<glyph unicode="l" glyph-name="l" horiz-adv-x="253" d="M136 0H9L156 667H283L136 0Z" />
<glyph unicode="m" glyph-name="m" horiz-adv-x="852" d="M736 0H608L673 292Q677 316 677 324Q677 351 657 366T608 382Q557 382 507 326L436 0H308L373 292Q378 317 378 327Q377 351 359 366T307 382Q258 382 208 326L136 0H9L116 483H243L229 420Q299 495 376
495Q409 495 436 484T478 458T501 430T509 408V406Q581 495 676 495Q734 495 774 462T814 372Q814 352 809 332L736 0Z" />
<glyph unicode="n" glyph-name="n" horiz-adv-x="579" d="M462 0H335L399 288Q404 310 404 320Q404 352 383 367T330 382Q266 382 208 326L136 0H9L116 483H243L229 420Q306 495 390 495Q459 495 500 462T541 372Q541 357 536 332L462 0Z" />
<glyph unicode="o" glyph-name="o" horiz-adv-x="574" d="M266 -12Q153 -12 90 49T27 207Q27 323 107 409T306 495Q419 495 482 434T546 275Q546 159 466 74T266 -12ZM271 101Q333 101 373 151T414 269Q414 322 384 352T302 382Q240 382 199 332T158 214Q158 161
188 131T271 101Z" />
<glyph unicode="p" glyph-name="p" horiz-adv-x="583" d="M304 -12Q201 -12 150 64L95 -184H-32L116 483H243L229 423Q290 495 375 495Q458 495 508 442T558 295Q558 220 530 151T442 35T304 -12ZM283 101Q345 101 385 150T425 269Q425 320 395 351T318 382Q254
382 207 324L170 156Q206 101 283 101Z" />
<glyph unicode="q" glyph-name="q" horiz-adv-x="583" d="M281 495Q329 495 370 475T435 419L448 483H576L428 -184H300L355 60Q294 -12 210 -12T76 41T26 188Q26 264 54 332T142 448T281 495ZM301 382Q240 382 200 332T159 214Q159 163 189 132T266 101Q332 101
377 158L414 326Q377 382 301 382Z" />
<glyph unicode="r" glyph-name="r" horiz-adv-x="360" d="M136 0H9L116 483H243L228 420Q298 495 400 495L372 369Q348 375 326 375Q257 375 206 317L136 0Z" />
<glyph unicode="s" glyph-name="s" horiz-adv-x="477" d="M219 -12Q152 -12 92 10T-9 75L62 160Q85 132 133 108T231 84Q262 84 281 99T301 135Q301 158 263 175T179 205T95 250T56 332Q56 399 109 447T255 495Q316 495 370 474T460 416L395 335Q376 359 336 378T253
398Q221 398 202 385T183 351Q183 335 208 322T269 298T341 272T403 228T428 157Q428 85 372 37T219 -12Z" />
<glyph unicode="t" glyph-name="t" horiz-adv-x="338" d="M203 -12Q136 -12 98 14T59 93Q59 110 63 126L117 373H37L62 483H142L171 615H299L270 483H368L342 373H244L198 163Q196 151 196 143Q196 101 243 101Q266 101 278 111L283 9Q252 -12 203 -12Z" />
<glyph unicode="u" glyph-name="u" horiz-adv-x="579" d="M115 483H243L178 192Q174 174 174 163Q174 132 196 117T255 101Q311 101 370 158L442 483H569L462 0H335L349 63Q270 -12 188 -12Q119 -12 78 22T37 112Q37 129 42 151L115 483Z" />
<glyph unicode="v" glyph-name="v" horiz-adv-x="513" d="M271 0H134L47 483H179L230 147L432 483H572L271 0Z" />
<glyph unicode="w" glyph-name="w" horiz-adv-x="769" d="M568 0H433L403 329L229 0H93L53 483H180L199 158L377 483H490L523 158L686 483H822L568 0Z" />
<glyph unicode="x" glyph-name="x" horiz-adv-x="504" d="M450 0H312L238 163L91 0H-54L171 248L63 483H200L267 334L400 483H546L331 248L450 0Z" />
<glyph unicode="y" glyph-name="y" horiz-adv-x="513" d="M-48 -184L-6 -74Q12 -82 43 -82Q80 -82 103 -48L133 -3L47 483H179L230 147L432 483H572L220 -79Q181 -143 138 -169T33 -196Q-13 -196 -48 -184Z" />
<glyph unicode="z" glyph-name="z" horiz-adv-x="479" d="M382 0H-12L9 95L284 372H71L95 483H485L465 391L186 111H406L382 0Z" />
<glyph unicode="{" glyph-name="braceleft" horiz-adv-x="288" d="M174 -190H129Q72 -190 31 -154T-10 -62Q-10 -44 -6 -31L33 141Q35 153 35 159Q35 180 24 194T-5 208L11 280Q64 280 78 347L116 518Q134 598 183 638T306 678H367L348 593H288Q225 593 208 519L165
324Q147 250 99 235Q128 218 128 179Q128 161 124 145L86 -30Q84 -42 84 -49Q84 -74 99 -89T139 -105H194L174 -190Z" />
<glyph unicode="|" glyph-name="bar" horiz-adv-x="216" d="M171 -20H86V687H171V-20Z" />
<glyph unicode="}" glyph-name="braceright" horiz-adv-x="288" d="M113 678H158Q215 678 256 642T297 550Q297 531 293 519L255 347Q253 335 253 329Q253 307 263 294T292 280L276 208Q223 208 209 141L171 -30Q153 -110 104 -150T-19 -190H-80L-61 -105H-1Q62
-105 79 -31L123 164Q139 238 188 254Q159 269 159 309Q159 327 163 343L201 518Q203 530 203 537Q203 562 188 577T148 593H93L113 678Z" />
<glyph unicode="~" glyph-name="asciitilde" horiz-adv-x="510" d="M491 667L575 657Q522 412 386 412Q337 412 313 439T287 500T277 560T249 588Q220 588 192 536T150 412L65 422Q115 666 254 666Q294 666 317 648T347 604T357 552T367 507T392 489Q421 489 449
542T491 667Z" />
</font>
</defs>
</svg>
